#!OML:ASF I:\Actors\actors\Patient Classification 2\Patient 1\Session 1\actor1.ASF
:FULLY-SPECIFIED
:DEGREES
895
root 1.69492 18.3909 5.23522 3.72615 1.25766 11.2747
lowerback 15.1145 -3.33712 6.66772
upperback 3.40159 -3.12132 3.7354
thorax -4.98425 -1.58391 0.795956
lowerneck -4.06895 -12.6168 -12.3167
upperneck 27.8753 -17.3136 4.03455
head 11.1636 -8.70462 1.44026
rclavicle 2.94201e-014 -5.40694e-014
rhumerus -52.7359 -0.349067 -71.0005
rradius 87.5714
rwrist -29.2114
rhand -14.9694 -68.6698
rfingers 7.12502
rthumb 11.1943 -261.649
lclavicle 2.94201e-014 -5.40694e-014
lhumerus -45.6504 -23.2327 105.96
lradius 85.0798
lwrist 32.1647
lhand -8.88547 -11.2124
lfingers 7.12502
lthumb 17.0567 18.0588
rfemur -5.50327 5.0362 -6.31898
rtibia 15.165
rfoot -20.4937 -12.7234
rtoes -17.0512
lfemur -12.3811 8.60768 -33.6012
ltibia 26.5573
lfoot -19.1376 -0.343165
ltoes -50.9258
896
root 1.69483 18.3894 5.22914 3.80871 1.1724 11.386
lowerback 15.299 -3.31778 6.7441
upperback 3.45291 -3.0672 3.74981
thorax -5.0304 -1.5578 0.766385
lowerneck -3.85806 -12.4976 -12.1997
upperneck 27.143 -17.1046 3.9776
head 10.8053 -8.61748 1.46962
rclavicle 1.27222e-014 1.90833e-014
rhumerus -52.1021 -0.270692 -70.7003
rradius 87.2132
rwrist -29.3183
rhand -14.9517 -68.7199
rfingers 7.12502
rthumb 11.2113 -261.6
lclavicle 1.27222e-014 1.90833e-014
lhumerus -45.6259 -23.2394 105.938
lradius 85.0562
lwrist 32.2612
lhand -8.948 -11.392
lfingers 7.12502
lthumb 16.9965 17.8844
rfemur -5.7889 4.92042 -6.46336
rtibia 15.4429
rfoot -20.4659 -12.5605
rtoes -16.8733
lfemur -12.514 8.73457 -33.7326
ltibia 26.5674
lfoot -19.0699 -0.444465
ltoes -51.0002
897
root 1.69393 18.3879 5.21954 3.9098 1.07114 11.4884
lowerback 15.5506 -3.28135 6.88801
upperback 3.50414 -2.97328 3.75112
thorax -5.11501 -1.51361 0.680823
lowerneck -3.70958 -12.4235 -12.0852
upperneck 26.4306 -16.9695 3.96863
head 10.4838 -8.55581 1.49902
rclavicle -3.49861e-014 3.49861e-014
rhumerus -51.318 -0.180473 -70.3382
rradius 86.8352
rwrist -29.4541
rhand -15.1275 -68.7319
rfingers 7.12502
rthumb 11.0417 -261.579
lclavicle -3.49861e-014 3.49861e-014
lhumerus -45.6484 -23.3317 105.929
lradius 85.0234
lwrist 32.3532
lhand -9.09596 -11.6581
lfingers 7.12502
lthumb 16.8541 17.6305
rfemur -6.13047 4.71384 -6.61301
rtibia 15.7253
rfoot -20.3361 -12.3685
rtoes -17.0578
lfemur -12.6998 8.89052 -33.865
ltibia 26.5912
lfoot -18.9916 -0.555506
ltoes -51.0025
898
root 1.68857 18.3862 5.20901 3.96347 1.00816 11.5742
lowerback 15.9083 -3.24911 7.07507
upperback 3.55314 -2.86456 3.76537
thorax -5.2594 -1.46362 0.587211
lowerneck -3.52144 -12.382 -11.9625
upperneck 25.7259 -16.8722 3.89819
head 10.1596 -8.51662 1.50336
rclavicle -2.06736e-014 1.90833e-014
rhumerus -50.4598 -0.0518872 -69.8959
rradius 86.4725
rwrist -29.5855
rhand -14.9144 -68.938
rfingers 7.12502
rthumb 11.2473 -261.384
lclavicle -2.06736e-014 1.90833e-014
lhumerus -45.8124 -23.4219 105.963
lradius 85.0393
lwrist 32.3217
lhand -9.17042 -11.9056
lfingers 7.12502
lthumb 16.7824 17.389
rfemur -6.41915 4.54575 -6.72502
rtibia 16.0237
rfoot -20.2441 -12.1567
rtoes -17.0356
lfemur -12.8324 9.05762 -33.9567
ltibia 26.6232
lfoot -18.9154 -0.697133
ltoes -51.0128
899
root 1.67781 18.3853 5.2004 4.10251 0.981692 11.6471
lowerback 16.14 -3.21251 7.26159
upperback 3.58842 -2.7591 3.81963
thorax -5.3475 -1.41463 0.530085
lowerneck -3.21872 -12.3544 -11.9147
upperneck 24.9746 -16.7956 3.82019
head 9.81131 -8.49612 1.52184
rclavicle 5.56597e-015 3.49861e-014
rhumerus -49.4283 0.162375 -69.3434
rradius 86.0152
rwrist -29.7324
rhand -14.7738 -69.1
rfingers 7.12502
rthumb 11.3829 -261.229
lclavicle 5.56597e-015 3.49861e-014
lhumerus -45.9911 -23.4759 106.052
lradius 84.9855
lwrist 32.1911
lhand -9.23088 -12.1843
lfingers 7.12502
lthumb 16.7242 17.1153
rfemur -6.76287 4.36136 -6.80244
rtibia 16.3232
rfoot -20.2026 -11.9972
rtoes -17.1638
lfemur -13.0385 9.18294 -34.0198
ltibia 26.6471
lfoot -18.8316 -0.859261
ltoes -50.9715
900
root 1.66309 18.3841 5.19261 4.31275 0.981158 11.7876
lowerback 16.2868 -3.1696 7.39188
upperback 3.63726 -2.66507 3.86215
thorax -5.3734 -1.36938 0.488635
lowerneck -3.06716 -12.3541 -11.8555
upperneck 24.3131 -16.7451 3.718
head 9.52643 -8.48338 1.51443
rclavicle -6.67916e-014 7.63333e-014
rhumerus -48.1375 0.377691 -68.7352
rradius 85.4268
rwrist -29.8208
rhand -14.5183 -69.1662
rfingers 7.12502
rthumb 11.6293 -261.177
lclavicle -6.67916e-014 7.63333e-014
lhumerus -46.0899 -23.5631 106.126
lradius 84.8908
lwrist 32.1205
lhand -9.26767 -12.2146
lfingers 7.12502
lthumb 16.6888 17.088
rfemur -7.15472 4.13964 -6.94882
rtibia 16.6276
rfoot -20.1926 -11.866
rtoes -17.4529
lfemur -13.3159 9.38732 -34.1564
ltibia 26.6576
lfoot -18.7128 -1.08478
ltoes -51.0034
901
root 1.6454 18.3846 5.18686 4.50912 1.0276 11.9799
lowerback 16.4475 -3.13026 7.49743
upperback 3.70194 -2.58036 3.88236
thorax -5.38984 -1.32795 0.43897
lowerneck -2.97419 -12.3612 -11.7813
upperneck 23.6728 -16.7134 3.65467
head 9.26648 -8.47233 1.51107
rclavicle 4.77083e-015 -1.59028e-014
rhumerus -46.7362 0.516603 -68.1038
rradius 84.7906
rwrist -29.8446
rhand -14.1324 -69.2575
rfingers 7.12502
rthumb 12.0014 -261.107
lclavicle 4.77083e-015 -1.59028e-014
lhumerus -46.1948 -23.6663 106.169
lradius 84.8589
lwrist 32.1085
lhand -9.28842 -11.9191
lfingers 7.12502
lthumb 16.6688 17.3852
rfemur -7.50399 3.96846 -7.14082
rtibia 16.956
rfoot -20.3072 -11.7209
rtoes -17.1466
lfemur -13.562 9.71955 -34.3361
ltibia 26.6592
lfoot -18.526 -1.43115
ltoes -51.1003
902
root 1.62558 18.3858 5.18069 4.74386 1.14294 12.197
lowerback 16.6071 -3.11759 7.62713
upperback 3.73835 -2.52432 3.89433
thorax -5.43846 -1.3018 0.374147
lowerneck -2.72935 -12.3461 -11.7687
upperneck 22.8992 -16.6839 3.72018
head 8.95309 -8.45966 1.57219
rclavicle 2.06736e-014 6.36111e-015
rhumerus -45.2624 0.64861 -67.4599
rradius 84.1211
rwrist -29.9565
rhand -13.866 -69.2443
rfingers 7.12502
rthumb 12.2583 -261.135
lclavicle 2.06736e-014 6.36111e-015
lhumerus -46.307 -23.7456 106.208
lradius 84.7966
lwrist 32.0986
lhand -9.38991 -11.689
lfingers 7.12502
lthumb 16.5711 17.6235
rfemur -7.85829 3.72068 -7.3518
rtibia 17.2779
rfoot -20.3761 -11.6492
rtoes -17.0569
lfemur -13.8417 10.0063 -34.5408
ltibia 26.6554
lfoot -18.285 -1.80847
ltoes -51.1243
903
root 1.60144 18.3859 5.17304 5.01772 1.36999 12.4071
lowerback 16.7745 -3.15437 7.77197
upperback 3.76387 -2.52543 3.93865
thorax -5.50488 -1.30381 0.348738
lowerneck -2.60637 -12.3265 -11.7435
upperneck 22.1625 -16.6257 3.71847
head 8.66824 -8.4353 1.60361
rclavicle -7.95139e-015 9.54166e-015
rhumerus -43.6405 0.853682 -66.7929
rradius 83.4463
rwrist -30.1435
rhand -13.7955 -69.238
rfingers 7.12502
rthumb 12.3263 -261.145
lclavicle -7.95139e-015 9.54166e-015
lhumerus -46.3744 -23.7603 106.258
lradius 84.6787
lwrist 32.0582
lhand -9.41662 -11.6165
lfingers 7.12502
lthumb 16.5454 17.6981
rfemur -8.19206 3.33042 -7.53021
rtibia 17.5789
rfoot -20.3645 -11.622
rtoes -17.3293
lfemur -14.1562 10.172 -34.7255
ltibia 26.6501
lfoot -18.0498 -2.1983
ltoes -51.1024
904
root 1.57374 18.3873 5.16662 5.32832 1.68176 12.551
lowerback 16.8657 -3.1818 8.02158
upperback 3.80053 -2.50445 3.99169
thorax -5.52052 -1.295 0.265513
lowerneck -2.5883 -12.3623 -11.523
upperneck 21.4995 -16.6068 3.47689
head 8.39399 -8.43146 1.51826
rclavicle 1.74931e-014 -4.13472e-014
rhumerus -41.998 0.946461 -66.0809
rradius 82.8177
rwrist -30.2757
rhand -13.6992 -69.4111
rfingers 7.12502
rthumb 12.4191 -260.978
lclavicle 1.74931e-014 -4.13472e-014
lhumerus -46.4621 -23.873 106.312
lradius 84.5892
lwrist 32.0209
lhand -9.30039 -11.557
lfingers 7.12502
lthumb 16.6573 17.7482
rfemur -8.52114 2.90225 -7.61664
rtibia 17.9099
rfoot -20.4816 -11.4913
rtoes -16.9997
lfemur -14.4938 10.2246 -34.8207
ltibia 26.6541
lfoot -17.8393 -2.59112
ltoes -51.0068
905
root 1.54438 18.3886 5.16157 5.64728 1.96993 12.714
lowerback 16.9029 -3.17426 8.30597
upperback 3.85142 -2.4414 4.01097
thorax -5.49165 -1.26513 0.114352
lowerneck -2.43349 -12.4001 -11.2819
upperneck 20.7115 -16.6127 3.27923
head 8.06005 -8.43702 1.456
rclavicle 2.8625e-014 -9.54166e-015
rhumerus -40.3624 0.927969 -65.3266
rradius 82.19
rwrist -30.3124
rhand -13.4511 -69.5951
rfingers 7.12502
rthumb 12.6583 -260.809
lclavicle 2.8625e-014 -9.54166e-015
lhumerus -46.5555 -24.0313 106.361
lradius 84.523
lwrist 32.0489
lhand -9.04566 -11.4725
lfingers 7.12502
lthumb 16.9025 17.8119
rfemur -8.8939 2.47779 -7.72471
rtibia 18.3009
rfoot -20.5993 -11.27
rtoes -16.3596
lfemur -14.8379 10.3176 -34.9298
ltibia 26.6612
lfoot -17.6023 -3.03115
ltoes -50.7837
906
root 1.51195 18.3886 5.1569 5.97362 2.20914 12.9172
lowerback 16.9471 -3.17504 8.48842
upperback 3.9115 -2.40494 4.06003
thorax -5.45278 -1.2463 0.0575197
lowerneck -2.25721 -12.3866 -11.2607
upperneck 19.8661 -16.5778 3.31591
head 7.74421 -8.42061 1.50548
rclavicle -6.36111e-015 1.27222e-014
rhumerus -38.619 1.01979 -64.509
rradius 81.5329
rwrist -30.3313
rhand -13.1522 -69.7783
rfingers 7.12502
rthumb 12.9465 -260.643
lclavicle -6.36111e-015 1.27222e-014
lhumerus -46.5843 -23.9966 106.428
lradius 84.4294
lwrist 32.019
lhand -8.7997 -11.4504
lfingers 7.12502
lthumb 17.1392 17.8137
rfemur -9.32906 2.05118 -7.86276
rtibia 18.7459
rfoot -20.5992 -11.0789
rtoes -16.002
lfemur -15.1983 10.5375 -35.0889
ltibia 26.6618
lfoot -17.318 -3.50347
ltoes -50.7296
907
root 1.47689 18.3898 5.15086 6.33993 2.53107 13.0933
lowerback 16.9706 -3.19897 8.6849
upperback 3.95211 -2.3961 4.12031
thorax -5.4254 -1.24143 0.0109138
lowerneck -2.09771 -12.3997 -11.2247
upperneck 19.0639 -16.5892 3.38679
head 7.45375 -8.42168 1.55598
rclavicle 4.77083e-015 -3.18055e-014
rhumerus -36.8342 1.09711 -63.6956
rradius 80.8431
rwrist -30.3919
rhand -12.8801 -70.0497
rfingers 7.12502
rthumb 13.2088 -260.389
lclavicle 4.77083e-015 -3.18055e-014
lhumerus -46.5915 -23.9709 106.497
lradius 84.3002
lwrist 31.9391
lhand -8.70918 -11.5607
lfingers 7.12502
lthumb 17.2264 17.6958
rfemur -9.78997 1.57616 -7.94215
rtibia 19.2503
rfoot -20.6543 -10.9904
rtoes -16.056
lfemur -15.5981 10.6937 -35.2248
ltibia 26.6602
lfoot -17.0342 -3.92352
ltoes -50.8851
908
root 1.43873 18.3928 5.14534 6.69232 2.91874 13.2169
lowerback 16.9989 -3.20904 8.95686
upperback 3.98868 -2.35572 4.16758
thorax -5.40583 -1.22222 -0.0979082
lowerneck -1.98224 -12.4874 -11.0657
upperneck 18.3757 -16.69 3.32758
head 7.19538 -8.46551 1.53419
rclavicle 6.36111e-015 6.36111e-015
rhumerus -35.0561 1.08542 -62.8877
rradius 80.0915
rwrist -30.5607
rhand -12.6991 -70.3395
rfingers 7.12502
rthumb 13.3832 -260.11
lclavicle 6.36111e-015 6.36111e-015
lhumerus -46.6011 -24.1067 106.57
lradius 84.185
lwrist 31.9326
lhand -8.67466 -11.6411
lfingers 7.12502
lthumb 17.2596 17.6125
rfemur -10.227 1.09854 -7.93478
rtibia 19.8079
rfoot -20.8161 -10.9625
rtoes -16.2321
lfemur -15.9762 10.7966 -35.2817
ltibia 26.6603
lfoot -16.7773 -4.3593
ltoes -50.9273
